<svg width="384" height="346" viewBox="0 0 384 346" fill="none" xmlns="http://www.w3.org/2000/svg">
<path d="M62.5625 83.25C73.3125 83.25 85.375 94.0625 85.375 109.25C85.375 125.188 72 140 51.8125 140H8.8125V39.25H41.9375C60.1875 39.25 73.5625 51.5625 73.5625 65.4375C73.5625 75.8125 66.6875 83.25 62.5625 83.25ZM51.125 70.25C51.125 65.375 46.875 62.5 41.125 62.5H34.5625V78.3125H40.9375C46.75 78.3125 51.125 75.4375 51.125 70.25ZM47.75 115.688C53.875 115.688 59.75 112.688 59.75 106.062C59.75 100.188 55.5 96.625 47.9375 96.625L34.5625 96.5625V115.688H47.75ZM181.938 140H150.625L123.688 96.25V140H96.9375L96.8125 39.25H135.062C156.812 39.25 172.375 53.9375 172.375 72C172.375 84.5625 164.812 95.0625 154.938 99.5625L181.938 140ZM123.562 63.3125V83.5L134.5 83.5625C140.188 83.625 145.375 79.625 145.375 73.4375C145.375 67.1875 140.125 63.3125 134.5 63.3125H123.562ZM242.438 142.562C211.125 142.562 187.188 119.75 187.188 89.75C187.188 59.5 211.188 36.5625 242.5 36.5625C273.812 36.5625 297.812 59.5 297.812 89.75C297.812 119.75 273.812 142.562 242.438 142.562ZM242.5 117C258.5 117 270.75 105.062 270.75 89.5625C270.75 74 258.5 62 242.5 62C226.5 62 214.25 74 214.25 89.5625C214.25 105.062 226.5 117 242.5 117ZM342.375 141.375C325.812 141.375 310.75 134.062 305.688 122.938L321.875 107.062C326.062 113.25 333.875 117 342.312 117C348 117 353.562 114.938 353.562 110.812C353.562 105.625 343.25 101.062 333.375 96.6875C320.625 91.1875 309.688 82.8125 309.688 67.625C309.688 50.1875 326.25 37.75 345.375 37.75C360.75 37.75 372.75 45 376.688 54.9375L361.25 69.8125C358.25 64.5 350.5 62.1875 345.688 62.1875C340.188 62.1875 336.25 65 336.25 68.4375C336.25 73.0625 343.375 74.5625 354.25 79.125C370 85.75 380.438 95.375 380.438 110.25C380.438 129.438 362.562 141.375 342.375 141.375Z" fill="#FF8C00"/>
<path d="M53.0625 314.375C36.5 314.375 21.4375 307.062 16.375 295.938L32.5625 280.062C36.75 286.25 44.5625 290 53 290C58.6875 290 64.25 287.938 64.25 283.812C64.25 278.625 53.9375 274.062 44.0625 269.688C31.3125 264.188 20.375 255.812 20.375 240.625C20.375 223.188 36.9375 210.75 56.0625 210.75C71.4375 210.75 83.4375 218 87.375 227.938L71.9375 242.812C68.9375 237.5 61.1875 235.188 56.375 235.188C50.875 235.188 46.9375 238 46.9375 241.438C46.9375 246.062 54.0625 247.562 64.9375 252.125C80.6875 258.75 91.125 268.375 91.125 283.25C91.125 302.438 73.25 314.375 53.0625 314.375ZM154.25 315.562C122.938 315.562 99 292.75 99 262.75C99 232.5 123 209.562 154.312 209.562C185.625 209.562 209.625 232.5 209.625 262.75C209.625 292.75 185.625 315.562 154.25 315.562ZM154.312 290C170.312 290 182.562 278.062 182.562 262.562C182.562 247 170.312 235 154.312 235C138.312 235 126.062 247 126.062 262.562C126.062 278.062 138.312 290 154.312 290ZM288.062 237.125H249.188V253.438H281.188V275.812H249.188V313.125H222.75V212H288.062V237.125ZM368.5 212.25V237.25H344.375V313H317.562V237.25H293.375V212.25H368.5Z" fill="#002D4D"/>
<rect x="8" y="169" width="181" height="8" fill="#FF8C00"/>
<rect x="196" y="169" width="181" height="8" fill="#002D4D"/>
<path d="M188 169H196V177L192 173L188 169Z" fill="#002D4D"/>
<path d="M196 177H188V169L192 173L196 177Z" fill="#FF8C00"/>
</svg>
